<svg xmlns="http://www.w3.org/2000/svg" width="142" height="143" viewBox="0 0 142 143"><g><g><g><path fill="#49a3d9" d="M83.982 48.978h4.42V53.4h-4.42z"/></g><g><path fill="#49a3d9" d="M48.621 20.247h4.421v4.421h-4.42z"/></g><g><path fill="#49a3d9" d="M119.344.357h4.42v4.42h-4.42z"/></g><g><path fill="#49a3d9" d="M119.344 9.197h4.42v4.42h-4.42z"/></g><g><path fill="#49a3d9" d="M114.923 4.776h4.42v4.42h-4.42z"/></g><g><path fill="#49a3d9" d="M123.763 4.776h4.421v4.42h-4.421z"/></g><g><path fill="#49a3d9" d="M8.84 22.457h4.42v4.421H8.84z"/></g><g><path fill="#49a3d9" d="M8.84 31.298h4.42v4.42H8.84z"/></g><g><path fill="#49a3d9" d="M4.42 26.877h4.422v4.42H4.42z"/></g><g><path fill="#49a3d9" d="M13.26 26.877h4.422v4.42H13.26z"/></g><g><path fill="#49a3d9" d="M83.982 82.782c0-.884.526-1.682 1.34-2.03l10.508-4.505a6.67 6.67 0 0 0 3.952-5.155l.28-1.962-4.375-.625-.282 1.96a2.218 2.218 0 0 1-1.317 1.72l-10.507 4.504a6.62 6.62 0 0 0-4.018 6.093V94.45a44.238 44.238 0 0 1-8.84.889c-4.412 0-8.675-.65-12.698-1.859l6.335-6.334a6.587 6.587 0 0 0 1.942-4.688v-9.795a6.638 6.638 0 0 0-1.597-4.316L61.98 65.17l-3.357 2.876 2.726 3.178c.343.401.532.913.532 1.44v9.795c0 .59-.23 1.144-.649 1.561l-7.797 7.798C37.799 85.148 26.76 69.716 26.524 51.726v-.054l-.002-.208v-.068c-.002-.087-.002-.173-.002-.258 0-.094 0-.19.002-.282v-.11c.002-.059.002-.116.002-.173l.002-.128.004-.153.001-.152.004-.128.004-.148.004-.133.005-.136.004-.148.005-.13c.002-.05.004-.1.008-.15l.003-.111.01-.178a.947.947 0 0 0 .003-.073l.012-.21c.001-.018.001-.036.003-.053.004-.08.01-.158.015-.237v-.01c.13-2.04.399-4.042.798-5.997h6.828c.98 0 1.856.658 2.125 1.602l2.589 9.06a6.66 6.66 0 0 0 6.375 4.808h3.472a2.2 2.2 0 0 1 1.678.771l4.36 5.087 3.356-2.876-4.36-5.087a6.621 6.621 0 0 0-5.034-2.316h-3.472a2.217 2.217 0 0 1-2.125-1.602l-2.589-9.06a6.658 6.658 0 0 0-6.375-4.808h-5.684c4.094-12.994 14.042-23.418 26.735-28.161l.136 10.607c.044 3.586 2.998 6.503 6.585 6.503h7.922a6.578 6.578 0 0 0 6.385-4.971l.014-.063a2.162 2.162 0 0 1 1.234-1.454 2.155 2.155 0 0 1 1.906.085l3.384 1.849a2.166 2.166 0 0 1 1.128 1.9v9.694a6.567 6.567 0 0 0 4.558 6.264l9.691 3.14a6.637 6.637 0 0 0 7.865-3.138l4.449-8.167a43.928 43.928 0 0 1 4.378 19.173 44.63 44.63 0 0 1-.219 4.42h-11.418c-3.278 0-6.1 2.447-6.564 5.692l-.404 2.834 4.376.625.404-2.834a2.221 2.221 0 0 1 2.188-1.897h10.749c-3.218 15.79-14.884 28.547-30.053 33.328zM70.936 6.938c4.152.018 8.265.623 12.215 1.776 10.36 3.041 19.154 9.782 24.846 18.69l-5.782 10.616a2.21 2.21 0 0 1-2.623 1.044l-9.69-3.138a2.16 2.16 0 0 1-1.5-2.06v-9.693a6.584 6.584 0 0 0-3.428-5.779l-3.386-1.85a6.557 6.557 0 0 0-5.792-.256 6.547 6.547 0 0 0-3.751 4.42l-.015.064a2.163 2.163 0 0 1-2.1 1.633H62.01a2.174 2.174 0 0 1-2.166-2.138l-.15-11.881a45.288 45.288 0 0 1 11.243-1.448zm35.731 76.94c6.59-7.232 10.804-16.152 12.184-25.797l.009-.078c.319-2.244.484-4.536.484-6.865a48.33 48.33 0 0 0-6.76-24.71 2.428 2.428 0 0 0-.127-.249A48.919 48.919 0 0 0 95.149 9.091a48.254 48.254 0 0 0-9.875-4.35 48.464 48.464 0 0 0-14.551-2.224c-22.77 0-41.933 15.729-47.192 36.894-.017.05-.032.1-.045.152a48.609 48.609 0 0 0-1.242 7.82l-.002.035c-.007.093-.015.184-.02.275l-.004.05-.017.24-.003.066a18.563 18.563 0 0 1-.019.315c-.006.08-.01.157-.013.235l-.006.099-.009.21a1.67 1.67 0 0 0-.004.096l-.009.2c0 .03-.002.06-.004.087-.001.08-.005.158-.007.237l-.004.091-.005.247c-.002.02-.002.04-.002.06l-.006.233-.001.052c0 .087-.002.176-.004.263v.063l-.004.267V51.502l.004.218v.067c.004.2.005.4.01.601v.004a48.306 48.306 0 0 0 8.7 26.527c5.57 7.987 13.296 14.06 22.34 17.567.067.026.134.049.203.067a48.38 48.38 0 0 0 17.365 3.205c3.933 0 7.76-.47 11.425-1.356.05-.007.1-.018.148-.03 9.393-2.294 17.821-7.306 24.371-14.494z"/></g><g><path fill="#49a3d9" d="M37.452 98.551l-7.638-6.874a11.052 11.052 0 0 0-12.134-1.773V70.028c0-4.124-1.617-7.989-4.552-10.885-2.938-2.895-6.821-4.464-10.95-4.4A2.21 2.21 0 0 0 .001 56.95v41.624c0 .36.089.716.258 1.035l17.422 32.85v10.5h4.421v-11.051c0-.36-.089-.716-.258-1.035L4.421 98.024V59.348a10.784 10.784 0 0 1 5.602 2.943 10.788 10.788 0 0 1 3.238 7.738v24.393a2.2 2.2 0 0 0 .28.994c.002.006.006.01.007.015l.013.02.012.02.01.02.016.022a.42.42 0 0 0 .033.052l8.84 13.26 3.677-2.45-7.807-11.711a6.629 6.629 0 0 1 8.514.298l7.64 6.876a19.978 19.978 0 0 1 6.502 16.585l-1.207 13.287a1.81 1.81 0 0 0-.01.2v11.05h4.42v-10.95l1.2-13.187c.69-7.592-2.282-15.171-7.949-20.27"/></g><g><path fill="#49a3d9" d="M139.265 54.742a15.154 15.154 0 0 0-10.949 4.402 15.178 15.178 0 0 0-4.553 10.886v19.876a11.048 11.048 0 0 0-12.131 1.77l-7.64 6.875c-5.668 5.102-8.639 12.679-7.949 20.271l1.2 13.189v10.948h4.42v-11.048a1.81 1.81 0 0 0-.01-.2l-1.207-13.288a19.977 19.977 0 0 1 6.503-16.586l7.639-6.874a6.627 6.627 0 0 1 8.513-.3l-7.807 11.71 3.677 2.452 8.84-13.26c.01-.012.017-.025.027-.038a.173.173 0 0 1 .009-.015c.004-.008.01-.015.013-.023.004-.005.007-.012.013-.018.002-.007.005-.013.01-.019l.012-.022.007-.013c.175-.311.267-.653.28-.994v-.004-.035-.009c.002-.011.002-.022.002-.033V70.03c0-2.932 1.148-5.68 3.236-7.739 1.562-1.539 3.5-2.55 5.604-2.943v38.676l-17.422 32.85c-.17.319-.258.675-.258 1.037v11.048h4.42v-10.5l17.422-32.849a2.21 2.21 0 0 0 .258-1.035V56.952a2.21 2.21 0 0 0-2.18-2.21"/></g><g><path fill="#49a3d9" d="M76.23 50.344l-3.258 3.259a2.207 2.207 0 0 1-2.376.493l-.111-.048a2.193 2.193 0 0 1-.914-.783l-2.49-3.735a2.183 2.183 0 0 1-.236-1.988 2.187 2.187 0 0 1 1.466-1.363l5.254-1.502c.017-.003.033-.007.048-.013.006 0 .01-.001.013-.003a.287.287 0 0 0 .043-.01l.007-.001.05-.012.008-.001.046-.01h.006a.507.507 0 0 1 .052-.009c.002 0 .003 0 .005-.002l.047-.005.007-.002c.035-.004.069-.008.104-.01l.005-.001.106-.006h.006c.072-.002.142 0 .215.006h.002c.035.001.072.005.107.01h.002c.035.004.07.01.106.016h.002l.105.022h.002c.035.007.07.017.104.026l.004.002c.016.003.033.009.052.014h.002l.048.017h.003a.548.548 0 0 1 .054.02l.045.017.005.002.047.019.009.003.043.019a.006.006 0 0 0 .003.002l.047.022a.417.417 0 0 0 .05.024l.005.004a.892.892 0 0 0 .043.022l.011.006.045.024c.523.302.892.792 1.038 1.378l.493 1.98a2.22 2.22 0 0 1-.58 2.098zm4.375-5.15a6.58 6.58 0 0 0-3.116-4.133 6.583 6.583 0 0 0-5.139-.634l-5.253 1.502a6.57 6.57 0 0 0-4.403 4.087 6.889 6.889 0 0 0-.293 1.048c-.01.065-.024.128-.033.193-.011.063-.02.128-.03.193-.013.096-.022.193-.031.289a6.278 6.278 0 0 0-.024.77l.009.189v.01c.004.058.007.12.013.177l.002.017a6.6 6.6 0 0 0 1.094 3.08l2.49 3.735a6.607 6.607 0 0 0 5.525 2.954c1.75 0 3.427-.69 4.68-1.944l3.259-3.258a6.667 6.667 0 0 0 1.745-6.296z"/></g></g></g></svg>