<svg xmlns="http://www.w3.org/2000/svg" width="143" height="142" viewBox="0 0 143 142"><g><g><g><path fill="#49a3d9" d="M37.07 122.1l-.662-7.944c0-1.324-1.103-2.205-2.427-1.985-1.325 0-2.207 1.102-1.987 2.426l.662 7.503H12.797l.662-7.503c0-1.324-.882-2.205-1.986-2.426-1.324 0-2.207.881-2.427 1.985l-.662 7.944H4.632l1.104-16.549c0-.883.441-1.545 1.103-1.765 2.207-1.104 4.414-2.207 6.4-2.87l5.296 9.49c.441.662 1.103 1.103 1.986 1.103h4.414c.882 0 1.544-.44 1.986-1.103l5.294-9.49c2.207.663 4.193 1.766 6.4 2.87.662.441 1.103 1.103 1.103 1.986l1.104 16.549H37.07zm3.752-22.286c-3.09-1.766-6.18-2.87-9.048-3.752-.883-.22-1.986.22-2.428 1.103l-5.515 9.93h-1.765l-5.517-9.93c-.442-.882-1.545-1.324-2.428-1.103-3.09.883-5.958 1.986-9.047 3.752-1.987 1.103-3.309 3.31-3.53 5.516L0 124.086c0 .662.22 1.104.662 1.766.441.441 1.103.662 1.545.662h41.042c.662 0 1.103-.221 1.545-.662.441-.442.662-1.104.662-1.766l-1.324-18.976c0-2.207-1.324-4.193-3.31-5.296z"/></g><g><path fill="#49a3d9" d="M85.615 137.326l-.662-7.945c0-1.324-1.103-2.205-2.427-1.984-1.324 0-2.207 1.102-1.986 2.426l.662 7.503h-19.86l.663-7.503c0-1.324-.883-2.205-1.986-2.426-1.324-.22-2.207.88-2.428 1.984l-.662 7.945h-3.751l1.103-16.55c0-.882.441-1.544 1.103-1.765 2.207-1.103 4.414-2.206 6.4-2.869l5.296 9.49c.442.662 1.104 1.103 1.986 1.103h4.414c.883 0 1.545-.441 1.986-1.103l5.295-9.49c2.206.663 4.192 1.766 6.4 2.87.661.44 1.103 1.103 1.103 1.985l1.103 16.55h-3.752zm3.752-22.287c-3.09-1.765-6.179-2.869-9.048-3.751-.883-.221-1.986.22-2.427 1.103l-5.515 9.93H70.61l-5.517-9.93c-.441-.883-1.544-1.324-2.427-1.103-3.09.882-5.958 1.986-9.048 3.751-1.986 1.103-3.308 3.31-3.529 5.517l-1.324 18.976c0 .663.22 1.104.662 1.766.441.441 1.103.662 1.545.662h41.042c.662 0 1.104-.22 1.545-.662.441-.441.662-1.103.662-1.766l-1.324-18.976c-.442-2.427-1.545-4.414-3.531-5.517z"/></g><g><path fill="#49a3d9" d="M134.16 122.1l-.661-7.943c0-1.324-1.104-2.207-2.428-1.986-1.322 0-2.205 1.103-1.986 2.428l.664 7.5h-19.861l.662-7.5c0-1.325-.883-2.207-1.986-2.428-1.324 0-2.207.883-2.428 1.986l-.662 7.943h-3.75l1.104-16.55c0-.882.441-1.544 1.104-1.765 2.204-1.103 4.411-2.206 6.397-2.869l5.297 9.49c.44.662 1.103 1.103 1.986 1.103h4.413c.883 0 1.545-.441 1.986-1.103l5.295-9.49c2.207.663 4.193 1.766 6.4 2.87.661.44 1.103 1.103 1.103 1.985l1.103 16.55h-3.751zm7.062-16.99c-.22-2.207-1.324-4.414-3.31-5.518-3.09-1.765-6.179-2.868-9.046-3.751-.882-.22-1.986.22-2.427 1.103l-5.517 9.93h-1.766l-5.517-9.93c-.44-.882-1.544-1.324-2.427-1.103-3.09.883-5.958 1.986-9.046 3.751-1.986 1.104-3.31 3.31-3.53 5.517l-1.546 18.977c0 .662.221 1.103.663 1.765.44.442 1.103.662 1.544.662h41.043c.662 0 1.103-.22 1.544-.662.442-.441.662-1.103.662-1.765z"/></g><g><path fill="#49a3d9" d="M71.273 24.126c6.4 0 11.696 5.297 11.696 11.696 0 6.398-5.296 11.694-11.696 11.694-2.233 0-4.33-.617-6.117-1.702l6.117 6.116c8.827 0 16.108-7.282 16.108-16.108 0-8.827-7.281-16.11-16.108-16.11-8.827 0-16.108 7.283-16.108 16.11l6.094 6.094a11.692 11.692 0 0 1-1.682-6.094zm-6.117 21.688a11.603 11.603 0 0 1-3.897-3.898z"/></g><g><path fill="#49a3d9" d="M22.728 77.746a5.934 5.934 0 0 1 5.958 5.959c0 3.53-3.09 8.606-5.958 8.606-3.09 0-5.959-5.076-5.959-8.606zM40.38 35.821v-3.09l4.413-.22c1.104 0 1.766-.662 1.987-1.765.662-3.09 1.765-5.957 3.53-8.605.662-.883.442-1.986-.22-2.648L47 16.183l4.193-4.193 3.31 3.09c.662.661 1.766.661 2.648.22 3.088-1.986 5.957-3.09 9.046-3.752.883-.22 1.766-1.103 1.766-1.986l.22-4.413h6.18l.22 4.413c0 1.104.662 1.766 1.766 1.986 3.089.663 5.958 1.766 8.604 3.531.883.662 1.986.442 2.648-.22l3.31-3.09 4.193 4.193-3.09 3.31c-.661.662-.661 1.766-.22 2.648 1.766 2.648 2.869 5.517 3.531 8.605.22.883 1.103 1.765 1.986 1.765l4.414.221v6.179l-4.414.22c-1.103 0-1.765.663-1.986 1.766-.662 3.09-1.765 5.958-3.53 8.607-.663.882-.442 1.986.22 2.646l3.09 3.31-4.194 4.193-3.31-3.09c-.662-.662-1.765-.662-2.648-.22-2.646 1.765-5.515 2.869-8.604 3.53-.883.221-1.766 1.104-1.766 1.987l-.22 4.413h-6.18l-.22-4.413c0-1.104-.662-1.766-1.766-1.986-3.09-.662-5.958-1.766-8.606-3.531-.88-.662-1.984-.442-2.646.22l-3.31 3.09-4.414-3.752 3.09-3.31c.661-.66.661-1.763.22-2.646-1.765-2.648-2.869-5.517-3.53-8.607-.221-.882-1.104-1.765-1.987-1.765l-4.413-.22v-3.31zM77.23 99.152c0 3.529-3.09 8.605-5.958 8.605-3.09 0-5.958-5.076-5.958-8.605a5.934 5.934 0 0 1 5.958-5.958zm42.587-21.406a5.934 5.934 0 0 1 5.959 5.959c0 3.53-3.09 8.606-5.959 8.606-3.09 0-5.958-5.076-5.958-8.606zM20.521 64.507v9.048c-4.634 1.104-8.165 5.295-8.165 10.15 0 5.958 4.634 13.02 10.372 13.02 5.737 0 10.371-7.062 10.371-13.02 0-5.076-3.53-9.267-8.165-10.15v-9.048l9.488-9.489c.882-.882.882-2.206 0-3.09-.883-.88-2.205-.88-3.088 0l-6.4 6.4v-20.3h11.032v2.869c0 1.103.883 2.207 2.207 2.207l4.855.22c.662 2.428 1.545 4.855 2.869 7.062l-3.31 3.75c-.883.882-.662 2.206 0 3.09l7.282 7.281c.883.883 2.207.883 3.09 0l3.751-3.31c2.205 1.324 4.632 2.207 7.06 2.87l.22 4.854c0 1.103 1.104 2.207 2.207 2.207h2.87V88.78c-4.635 1.104-8.166 5.296-8.166 10.151 0 5.957 4.634 13.018 10.372 13.018 5.738 0 10.372-7.061 10.372-13.018 0-5.075-3.531-9.268-8.165-10.15V71.127h2.869c1.103 0 2.206-.883 2.206-2.207l.221-4.855c2.427-.662 4.853-1.545 7.06-2.869l3.751 3.31c.883.883 2.207.662 3.09 0l7.282-7.282c.883-.883.883-2.207 0-3.09l-3.31-3.75c1.324-2.206 2.207-4.633 2.869-7.06l4.855-.221c1.103 0 2.207-1.104 2.207-2.207v-2.869h11.032v20.3l-6.4-6.4c-.883-.88-2.207-.88-3.09 0-.882.884-.882 2.208 0 3.09l9.49 9.49v9.047c-4.635 1.104-8.165 5.295-8.165 10.15 0 5.958 4.634 13.02 10.371 13.02 5.738 0 10.372-7.062 10.372-13.02 0-5.076-3.53-9.267-8.165-10.15v-9.048l9.49-9.489c.88-.882.88-2.206 0-3.09-.883-.88-2.207-.88-3.09 0l-6.4 6.4V35.821c0-1.324-.883-2.207-2.207-2.207H106.58v-2.868c0-1.104-.883-2.207-2.207-2.207l-4.855-.22c-.662-2.426-1.545-4.854-2.869-7.06l3.31-3.752c.883-.883.662-2.207 0-3.09l-7.282-7.282c-.883-.883-2.207-.883-3.09 0l-3.751 3.31c-2.207-1.324-4.633-2.207-7.06-2.869l-.22-4.855c0-1.101-1.104-2.205-2.207-2.205H65.977c-1.104 0-2.207.883-2.207 2.205l-.22 4.855c-2.428.662-4.856 1.545-7.06 2.87l-3.531-3.311c-.883-.883-2.207-.662-3.09 0l-7.282 7.282c-.883.883-.883 2.207 0 3.09l3.31 3.751c-1.324 2.207-2.207 4.635-2.869 7.06l-4.855.22c-1.103 0-2.207 1.104-2.207 2.208v2.868H22.728c-1.325 0-2.207.883-2.207 2.207v22.507l-6.4-6.4c-.883-.88-2.207-.88-3.09 0-.882.884-.882 2.208 0 3.09z"/></g></g></g></svg>