<svg xmlns="http://www.w3.org/2000/svg" width="150" height="134" viewBox="0 0 150 134"><g><g><path fill="#49a3d9" d="M142.942 126.919c-3.047 3.047-8.202 3.047-11.247 0l-19.919-19.917c-3.28-3.28-3.047-8.202 0-11.249 3.047-3.045 7.967-3.28 11.247 0l19.919 19.919zm-34.446-34.446c-.47.469-.939.938-1.172 1.64l-4.687-4.685c1.172-.705 2.343-1.408 3.515-2.344l3.983 3.983c-.703.47-1.172.938-1.64 1.406zm-47.101 4.921c2.344-2.813 4.219-6.56 5.858-11.482 2.578 2.344 5.624 3.983 8.67 5.389zM17.81 84.506c3.983-4.219 8.903-7.5 14.058-9.841 1.875 10.075 5.156 18.043 9.141 22.963zM41.009 6.709c-3.985 4.92-7.03 12.888-9.14 22.963-5.156-2.342-10.076-5.622-14.059-9.841zm43.35 12.888c-3.984 4.217-8.904 7.498-14.06 9.842-1.874-10.077-5.155-18.044-9.138-22.966 8.903 2.11 17.105 6.563 23.197 13.124zM71.471 36.702c0-.702-.236-1.639-.236-2.344 6.094-2.577 11.717-6.325 16.405-11.247 2.342 2.812 4.217 6.094 5.858 9.608zm39.601 15.233c.703 1.405 2.342 1.875 3.75.703l-14.999 15.7-8.2-9.375c-.938-1.17-2.578-1.17-3.516 0L82.25 65.76l-5.171-7.893zM77.08 57.867l-5.283.922 8.112 12.595c.936 1.406 2.81 1.406 3.747.234l6.094-7.264 7.967 9.138c.938.937 2.577 1.172 3.516 0l29.055-30.229.47 8.905c0 1.172 1.171 2.109 2.343 2.109h.234c1.406 0 2.344-1.172 2.108-2.578l-.936-14.294c0-.703-.234-1.172-.703-1.64-.47-.468-.938-.702-1.641-.468l-14.294.936c-1.406 0-2.342 1.172-2.109 2.578 0 1.407 1.172 2.344 2.578 2.11l8.202-.469-11.249 11.716c.47-.702.703-1.64.236-2.344-3.28-7.263-9.14-12.652-16.17-15.7C91.859 14.207 72.643.852 51.085.852 22.965.85 0 23.814 0 51.935c0 28.118 23.199 51.084 51.553 51.084.234 0 0 0 0 0 8.2.233 20.855-3.047 30.23-10.077 1.872.233 3.747.469 5.622.469 3.75 0 7.264-.703 10.78-1.875l7.03 7.03c-.938 4.217.234 8.67 3.28 11.717 30.228 30.227 15.7 15.7 19.92 19.916 4.919 4.922 12.886 5.156 17.807 0 4.922-4.92 4.922-12.886 0-17.808l-19.918-19.918c-3.28-3.28-7.733-4.217-11.717-3.28l-5.155-5.156c5.39-5.623 8.671-13.356 8.671-21.324 0-1.406-.938-2.342-2.344-2.342-1.405 0-2.344.936-2.344 2.342 0 7.499-3.28 14.53-8.903 19.449-2.11 1.875-4.452 3.28-6.796 4.452a26.186 26.186 0 0 1-10.31 2.109c-12.654 0-23.434-9.139-25.542-21.558L69.44 59.2l-8.045 1.404 8.202-8.67c1.172-1.171 3.045-.938 3.748.234zm-23.65 39.996V70.446c1.405 0 2.81.235 4.452.469 1.17 4.217 3.045 7.966 5.622 11.247zm-4.689 0C43.587 95.52 38.9 85.912 36.321 72.79c4.219-1.406 8.202-2.109 12.42-2.344zM34.682 54.277H48.74V65.76c-4.45.233-8.903.936-13.122 2.344-.469-4.453-.936-8.905-.936-13.827zM48.74 38.344v11.48H34.682c0-4.686.467-9.372.936-13.824zm0-32.338v27.416c-4.217-.234-8.436-.937-12.419-2.344zm4.688 27.65V6.006c5.155 2.342 9.842 11.95 12.42 25.072-3.984 1.407-8.203 2.344-12.42 2.578zm6.326 15.935h-6.092V38.108c4.452-.234 8.905-.936 13.122-2.342.235 1.17.235 2.578.469 3.983zm-6.326 4.686h4.453c-.705 2.577-1.172 5.624-1.172 8.436 0 1.172 0 2.11.233 3.28-1.172-.233-2.342-.233-3.514-.233zM14.763 23.11c4.686 4.686 10.31 8.436 16.403 11.014-.703 4.921-1.17 10.077-1.17 15.466H4.921c.469-9.842 3.983-19.216 9.841-26.48zM4.922 54.277h25.307c0 5.39.47 10.546 1.172 15.466-6.094 2.578-11.716 6.327-16.404 11.013zm66.08 3.28l.794 1.232-2.356.411z"/></g></g></svg>