<svg xmlns="http://www.w3.org/2000/svg" width="44" height="35" viewBox="0 0 44 35"><g><g><path fill="#1d4852" d="M43.596 25.84c0 4.695-3.732 8.784-9.391 8.784-6.378 0-10.472-5.174-10.472-11.553 0-16.14 11.073-21.56 18.66-22.284v7.351c-4.573.724-9.631 4.456-9.87 9.998.601-.362 1.442-.601 2.528-.601 5.415 0 8.545 3.247 8.545 8.305zm-23.733 0c0 4.695-3.732 8.784-9.391 8.784C4.094 34.624 0 29.45 0 23.071 0 6.931 11.074 1.511 18.66.787v7.351c-4.578.724-9.63 4.456-9.87 9.998.601-.362 1.442-.601 2.523-.601 5.42 0 8.55 3.247 8.55 8.305z"/></g></g></svg>