<svg xmlns="http://www.w3.org/2000/svg" width="111" height="134" viewBox="0 0 111 134"><g><g><g><path fill="#49a3d9" d="M67.605 121.498H42.644a2.08 2.08 0 1 0 0 4.16h24.96a2.08 2.08 0 1 0 0-4.16"/></g><g><path fill="#49a3d9" d="M63.444 129.819H46.803a2.08 2.08 0 0 0 0 4.16h16.641a2.08 2.08 0 1 0 0-4.16"/></g><g><path fill="#49a3d9" d="M95.252 59.966c-2.308 7.74-6.961 14.406-11.223 20.509l-.354.508c-4.465 6.392-9.526 13.635-10.756 21.962a62.194 62.194 0 0 0-.784 8.82 1.52 1.52 0 0 1-.384 1.097c-.23.217-.538.332-.853.315H57.203V77.118a6.253 6.253 0 0 0 10.405-.013c.905-1.035 1.267-1.37 2.077-1.37a2.08 2.08 0 0 0 0-4.16 6.613 6.613 0 0 0-5.209 2.79c-.905 1.034-1.266 1.37-2.077 1.37-.808 0-1.17-.336-2.077-1.37a6.252 6.252 0 0 0-10.412.001c-.905 1.035-1.267 1.369-2.074 1.369-.806 0-1.166-.334-2.071-1.369a6.599 6.599 0 0 0-5.202-2.791 2.08 2.08 0 1 0 0 4.16c.805 0 1.165.333 2.07 1.37a6.249 6.249 0 0 0 10.407 0l.004-.004v36.076H39.349a1.148 1.148 0 0 1-.852-.315 1.525 1.525 0 0 1-.385-1.1 62.08 62.08 0 0 0-.787-8.83c-1.227-8.314-6.288-15.557-10.752-21.95l-.356-.508c-4.332-6.204-9.06-12.994-11.327-20.9a6.478 6.478 0 0 1-3.844.841c-.09-.01-.182-.028-.272-.04 2.386 8.643 7.42 15.875 12.033 22.48l.354.51c4.408 6.307 8.965 12.831 10.057 20.229.432 2.694.677 5.417.734 8.146a5.634 5.634 0 0 0 1.595 4.054 5.297 5.297 0 0 0 3.802 1.543h31.55a5.301 5.301 0 0 0 3.803-1.543 5.645 5.645 0 0 0 1.594-4.052c.056-2.748.305-5.489.74-8.202 1.085-7.344 5.642-13.868 10.05-20.174l.356-.51c4.523-6.48 9.46-13.556 11.901-21.98-.096.014-.193.029-.289.036a6.464 6.464 0 0 1-3.802-.946"/></g><g><path fill="#49a3d9" d="M84.244 40.756a16.401 16.401 0 0 0-10.508 3.795c1.08-16.915-5.763-27.982-10.663-33.629 17.482 3.375 30.867 17.52 33.273 35.164a16.512 16.512 0 0 0-12.102-5.33zm-29.12 0a16.263 16.263 0 0 0-13.115 6.79c-2.845-23.018 10.005-35.023 12.8-37.336h1.67c2.837 2.348 16.043 14.687 12.658 38.404zm-29.123 0a16.44 16.44 0 0 0-12.094 5.295c2.474-18.09 16.478-32.442 34.502-35.353-5.006 5.686-12.238 17.142-10.795 34.854A16.424 16.424 0 0 0 26 40.756zM57.314 6.052l-.05-.001h-.06V2.93a2.08 2.08 0 1 0-4.161 0v3.122h-.113C28.522 7.182 9.324 27.32 9.362 51.753c0 .612.01 1.22.033 1.825.093 2.366 1.765 2.665 2.1 2.7 1.3.102 2.449-.842 2.599-2.138 1.697-6.574 8.4-10.53 14.975-8.833a12.292 12.292 0 0 1 9.144 10.5c.09.962.723 1.786 1.628 2.123a2.252 2.252 0 0 0 1.892-.193 2.522 2.522 0 0 0 1.162-1.802c1.054-6.385 6.196-11.017 12.228-11.017a12.346 12.346 0 0 1 12.17 10.564 2.471 2.471 0 0 0 2.008 2.496 2.232 2.232 0 0 0 1.756-.4 2.488 2.488 0 0 0 .979-1.782c.06-.488.146-.97.263-1.447l.015.002c.02-.087.033-.172.054-.261 1.719-6.563 8.434-10.49 14.998-8.772a12.285 12.285 0 0 1 8.902 9.311 2.279 2.279 0 1 0 4.547-.313c.046-.859.072-1.721.072-2.563.035-24.436-19.165-44.571-43.573-45.7z"/></g><g><path fill="#49a3d9" d="M14.609 13.7a2.08 2.08 0 0 0 2.473 1.592 2.08 2.08 0 0 0 1.593-2.474l-.001-.006-1.12-5.125a2.078 2.078 0 0 0-2.474-1.592 2.078 2.078 0 0 0-1.591 2.474v.006z"/></g><g><path fill="#49a3d9" d="M9.559 21.207a2.079 2.079 0 0 0 2.932-.24 2.079 2.079 0 0 0-.241-2.932l-3.835-3.253a2.082 2.082 0 0 0-2.934.24 2.084 2.084 0 0 0 .241 2.933z"/></g><g><path fill="#49a3d9" d="M6.752 24.548l-4.771.227a2.08 2.08 0 0 0 .096 4.157l.102-.002 4.77-.226a2.08 2.08 0 0 0-.197-4.156z"/></g><g><path fill="#49a3d9" d="M93.162 15.29a2.08 2.08 0 0 0 2.476-1.59l1.12-5.126a2.08 2.08 0 0 0-4.063-.893c-.002.001-.002.003-.002.005l-1.12 5.128a2.08 2.08 0 0 0 1.59 2.475"/></g><g><path fill="#49a3d9" d="M99.344 21.701c.493 0 .97-.174 1.344-.493l3.837-3.255a2.082 2.082 0 0 0 .241-2.932 2.084 2.084 0 0 0-2.934-.24l-3.835 3.254a2.079 2.079 0 0 0 1.347 3.666"/></g><g><path fill="#49a3d9" d="M108.266 24.774l-4.772-.227a2.113 2.113 0 0 0-2.175 1.981 2.08 2.08 0 0 0 1.979 2.177l4.771.224a2.078 2.078 0 0 0 2.177-2.08 2.082 2.082 0 0 0-1.98-2.075z"/></g></g></g></svg>