<svg xmlns="http://www.w3.org/2000/svg" width="131" height="134" viewBox="0 0 131 134"><g><g><g><path fill="#49a3d9" d="M126.056 66.167c0 3.951-2.288 6.032-7.073 6.447-1.455.208-2.286 1.248-2.078 2.289l.415 6.655-11.648-7.28c-1.457-1.039-3.328-1.456-5.201-1.456H64.276c-3.535 0-6.448-2.911-6.448-6.448V35.796c0-3.536 2.913-6.45 6.448-6.45h55.332c3.537 0 6.448 2.914 6.448 6.45zm-90.693-17.89c-1.873 0-3.744.625-5.202 1.456l-11.647 7.28.415-6.655c0-.625-.208-1.249-.623-1.666-.417-.415-1.04-.623-1.458-.623-.207 0-7.07.208-7.07-6.448V11.46c.207-3.537 3.119-6.45 6.655-6.45h55.333c3.536 0 6.448 2.913 6.448 6.45v13.728H64.485c-4.369 0-8.32 2.704-9.776 6.656H23.506c-1.248 0-2.08.832-2.08 2.08 0 1.249.832 2.081 2.08 2.081h30.162v12.273zm84.245-23.09H82.165V11.46c.208-5.825-4.576-10.61-10.4-10.61H16.434c-5.825 0-10.61 4.785-10.61 10.61v30.37c0 5.408 3.955 9.777 8.947 10.607l-.625 7.073c0 1.04.417 2.08 1.455 2.704.833.625 2.081.625 2.914 0l13.936-8.736c.832-.623 1.873-.831 2.913-.831h18.305v13.728c0 5.825 4.785 10.61 10.608 10.61h36.195c1.04 0 2.08.207 2.913.83l15.184 9.57a1.886 1.886 0 0 0 2.08 0c.624-.416 1.041-1.249 1.041-1.872l-.417-8.946c5.617-1.04 8.946-4.784 8.946-10.4v-30.37c0-5.824-4.785-10.609-10.61-10.609z"/></g><g><path fill="#49a3d9" d="M96.726 51.813c-.415.417-.623 1.25-.623 1.873l.83 4.369-3.95-2.081c-.209-.208-.624-.208-1.041-.208-.416 0-.623 0-1.039.208l-3.953 2.08.832-4.368c.208-.624-.207-1.456-.625-1.873l-3.119-3.12 4.367-.625c.625 0 1.248-.623 1.666-1.038l2.08-3.954 2.08 3.954c.207.623.832 1.038 1.664 1.038l4.368.625zm8.113-6.656l-7.488-1.04-3.329-6.864c-.623-1.457-3.119-1.457-3.744 0l-3.328 6.864-7.489 1.04c-.832.208-1.455.625-1.663 1.456-.208.832 0 1.665.623 2.08l5.41 5.408-1.249 7.49c-.21.83.208 1.663.831 2.079.625.417 1.458.625 2.289.208l6.657-3.535 6.656 3.535c.625.417 1.455.417 2.288-.208.625-.416 1.04-1.248.833-2.079l-1.666-7.49 5.41-5.408c.623-.625.832-1.455.623-2.08-.208-.831-1.04-1.248-1.664-1.456z"/></g><g><path fill="#49a3d9" d="M23.506 19.987h40.771c1.248 0 2.08-.832 2.08-2.08 0-1.248-.832-2.08-2.08-2.08H23.506c-1.248 0-2.081.832-2.081 2.08 0 1.248 1.04 2.08 2.08 2.08"/></g><g><path fill="#49a3d9" d="M62.196 127.114H26.834l-9.777-3.951v-22.05C45.971 92.375 39.731 73.447 42.02 71.16c.623-.833 2.703-1.04 3.744.415 2.703 3.536 2.079 13.938.623 19.97-.208.624 0 1.248.417 1.872.415.417 1.039.832 1.663.832h18.721c1.458 0 2.496 1.04 2.496 2.496s-1.248 2.496-2.496 2.496h-8.529c-1.248 0-2.078.833-2.078 2.081s.83 2.079 2.078 2.079h6.866c1.455 0 2.496 1.248 2.496 2.498 0 1.455-1.248 2.496-2.496 2.496h-7.696c-1.248 0-2.081.83-2.081 2.079 0 1.248.833 2.08 2.08 2.08h6.033c1.456 0 2.496 1.248 2.496 2.496 0 1.456-1.248 2.496-2.496 2.496-.21 0-.417 0-.625.208-.415 0-.623-.208-1.04-.208h-5.2c-1.248 0-2.08.833-2.08 2.081s.832 2.08 2.08 2.08h5.2c1.456 0 2.496 1.04 2.496 2.497.208 1.871-1.04 2.911-2.496 2.911zm-49.298 2.704H4.16V99.033h8.737zm61.155-33.074c0-3.744-3.12-6.655-6.655-6.655H51.17c1.04-5.825 1.873-16.227-1.87-21.011-2.706-3.536-7.699-3.12-9.987-.83-4.784 4.782 3.744 20.175-22.05 28.496-.207-1.04-1.04-1.873-2.078-1.873H2.08C.833 94.871 0 95.704 0 96.952v34.947c0 1.248.833 2.08 2.08 2.08h12.896c1.248 0 2.081-.832 2.081-2.08v-4.16l8.736 3.535c.208 0 .418.21.833.21h35.778c3.746 0 6.657-3.122 6.657-6.658 0-1.456-.415-2.704-1.248-3.744 1.663-1.248 2.911-3.329 2.911-5.408 0-1.457-.415-2.705-1.248-3.746 1.666-1.248 2.914-3.119 2.914-5.407 0-1.456-.418-2.704-1.248-3.744 1.663-1.873 2.911-3.744 2.911-6.033z"/></g></g></g></svg>